<?xml version="1.0" encoding="UTF-8" standalone="no"?>
<svg
   xmlns:dc="http://purl.org/dc/elements/1.1/"
   xmlns:cc="http://creativecommons.org/ns#"
   xmlns:rdf="http://www.w3.org/1999/02/22-rdf-syntax-ns#"
   xmlns:svg="http://www.w3.org/2000/svg"
   xmlns="http://www.w3.org/2000/svg"
   xmlns:sodipodi="http://sodipodi.sourceforge.net/DTD/sodipodi-0.dtd"
   xmlns:inkscape="http://www.inkscape.org/namespaces/inkscape"
   id="blue_copy"
   style="enable-background:new 0 0 100 100;"
   version="1.1"
   viewBox="0 0 100 100"
   xml:space="preserve"
   sodipodi:docname="arrow-d-rigth-black.svg"
   inkscape:version="0.92.2 5c3e80d, 2017-08-06"><metadata
     id="metadata14"><rdf:RDF><cc:Work
         rdf:about=""><dc:format>image/svg+xml</dc:format><dc:type
           rdf:resource="http://purl.org/dc/dcmitype/StillImage" /></cc:Work></rdf:RDF></metadata><defs
     id="defs12" /><sodipodi:namedview
     pagecolor="#ffffff"
     bordercolor="#666666"
     borderopacity="1"
     objecttolerance="10"
     gridtolerance="10"
     guidetolerance="10"
     inkscape:pageopacity="0"
     inkscape:pageshadow="2"
     inkscape:window-width="1141"
     inkscape:window-height="654"
     id="namedview10"
     showgrid="false"
     inkscape:zoom="2.36"
     inkscape:cx="50"
     inkscape:cy="50"
     inkscape:window-x="0"
     inkscape:window-y="0"
     inkscape:window-maximized="0"
     inkscape:current-layer="blue_copy" /><g
     id="Layer_4_copy"
     transform="matrix(1.8900251,0,0,1.8900251,-42.140576,-43.987986)"><path
       d="m 31.356,25.677 38.625,22.3 c 1.557,0.899 1.557,3.147 0,4.046 l -38.625,22.3 C 29.799,75.222 27.852,74.098 27.852,72.3 V 27.7 c 0,-1.798 1.946,-2.922 3.504,-2.023 z"
       id="path2"
       inkscape:connector-curvature="0" /><path
       d="m 69.981,47.977 -38.625,-22.3 c -0.233,-0.134 -0.474,-0.21 -0.716,-0.259 l 37.341,21.559 c 1.557,0.899 1.557,3.147 0,4.046 l -38.625,22.3 c -0.349,0.201 -0.716,0.288 -1.078,0.301 0.656,0.938 1.961,1.343 3.078,0.699 l 38.625,-22.3 c 1.557,-0.899 1.557,-3.147 0,-4.046 z"
       id="path4"
       inkscape:connector-curvature="0" /><path
       d="m 31.356,25.677 38.625,22.3 c 1.557,0.899 1.557,3.147 0,4.046 l -38.625,22.3 C 29.799,75.222 27.852,74.098 27.852,72.3 V 27.7 c 0,-1.798 1.946,-2.922 3.504,-2.023 z"
       style="fill:none;stroke:#000000;stroke-miterlimit:10"
       id="path6"
       inkscape:connector-curvature="0" /></g></svg>