<?xml version="1.0" encoding="UTF-8" standalone="no"?>
<!-- Generator: Adobe Illustrator 16.0.0, SVG Export Plug-In . SVG Version: 6.00 Build 0)  -->

<svg
   version="1.1"
   id="Capa_1"
   x="0px"
   y="0px"
   width="512px"
   height="512px"
   viewBox="0 0 512 512"
   style="enable-background:new 0 0 512 512;"
   xml:space="preserve"
   sodipodi:docname="mail-types.svg"
   inkscape:version="1.1.2 (b8e25be8, 2022-02-05)"
   xmlns:inkscape="http://www.inkscape.org/namespaces/inkscape"
   xmlns:sodipodi="http://sodipodi.sourceforge.net/DTD/sodipodi-0.dtd"
   xmlns="http://www.w3.org/2000/svg"
   xmlns:svg="http://www.w3.org/2000/svg"><defs
   id="defs46"><rect
     x="418.49484"
     y="227.4136"
     width="92.849338"
     height="220.68538"
     id="rect944" /><rect
     x="386.19943"
     y="244.90695"
     width="104.96012"
     height="227.4136"
     id="rect5496" /></defs><sodipodi:namedview
   id="namedview44"
   pagecolor="#ffffff"
   bordercolor="#666666"
   borderopacity="1.0"
   inkscape:pageshadow="2"
   inkscape:pageopacity="0.0"
   inkscape:pagecheckerboard="true"
   showgrid="false"
   inkscape:zoom="0.74313938"
   inkscape:cx="195.791"
   inkscape:cy="333.04654"
   inkscape:window-width="1312"
   inkscape:window-height="847"
   inkscape:window-x="0"
   inkscape:window-y="25"
   inkscape:window-maximized="0"
   inkscape:current-layer="Capa_1" />
<g
   id="g11"
   transform="matrix(0.69249964,0,0,0.66151368,25.271787,65.468948)">
	<path
   style="fill:#006e69;fill-opacity:1"
   d="M 256,0 0,192 V 512 H 512 V 192 Z m 96,288.219 -96,75.438 -96,-75.438 V 192 H 352 Z M 172.359,338.625 32,458.938 V 228.344 Z M 256,404.344 314,358.782 455.406,480 H 56.594 L 198.016,358.781 Z m 224,-176 V 458.938 L 339.656,338.625 Z M 466.75,198.063 384,263.094 V 160 H 352 160 128 v 103.062 l -82.75,-65 L 256,40 Z M 320,240 H 192 v -16 h 128 z m 0,32 H 192 v -16 h 128 z m 0,32 H 192 v -16 h 128 z"
   id="path9" />
</g>
<g
   id="g13">
</g>
<g
   id="g15">
</g>
<g
   id="g17">
</g>
<g
   id="g19">
</g>
<g
   id="g21">
</g>
<g
   id="g23">
</g>
<g
   id="g25">
</g>
<g
   id="g27">
</g>
<g
   id="g29">
</g>
<g
   id="g31">
</g>
<g
   id="g33">
</g>
<g
   id="g35">
</g>
<g
   id="g37">
</g>
<g
   id="g39">
</g>
<g
   id="g41">
</g>
<text
   xml:space="preserve"
   id="text5494"
   style="font-style:normal;font-weight:normal;font-size:170px;line-height:1.25;font-family:sans-serif;white-space:pre;shape-inside:url(#rect5496);fill:#006e69;fill-opacity:1;stroke:none"
   transform="matrix(1.7321941,0,0,1.500811,-339.86027,-128.87285)"><tspan
     x="386.19922"
     y="400.0024"
     id="tspan7505">T</tspan></text></svg>
