<?xml version="1.0" encoding="UTF-8" standalone="no"?>
<svg
   fill="none"
   height="15"
   viewBox="0 0 15 15"
   width="15"
   version="1.1"
   id="svg1351"
   sodipodi:docname="member-ship-plateforme.svg"
   inkscape:version="1.1.2 (b8e25be8, 2022-02-05)"
   xmlns:inkscape="http://www.inkscape.org/namespaces/inkscape"
   xmlns:sodipodi="http://sodipodi.sourceforge.net/DTD/sodipodi-0.dtd"
   xmlns="http://www.w3.org/2000/svg"
   xmlns:svg="http://www.w3.org/2000/svg">
  <defs
     id="defs1355" />
  <sodipodi:namedview
     id="namedview1353"
     pagecolor="#ffffff"
     bordercolor="#666666"
     borderopacity="1.0"
     inkscape:pageshadow="2"
     inkscape:pageopacity="0.0"
     inkscape:pagecheckerboard="0"
     showgrid="false"
     inkscape:zoom="41.666667"
     inkscape:cx="7.5"
     inkscape:cy="7.5"
     inkscape:window-width="1296"
     inkscape:window-height="847"
     inkscape:window-x="0"
     inkscape:window-y="25"
     inkscape:window-maximized="0"
     inkscape:current-layer="svg1351" />
  <path
     d="m 5.596,1.488 c -1.93283,0 -3.5,1.56567 -3.5,3.49804 0,1.93237 1.56717,3.49805 3.5,3.49805 1.93283,0 3.5,-1.56568 3.5,-3.49805 C 9.096,3.05367 7.52883,1.488 5.596,1.488 Z"
     fill="black"
     id="path1343"
     style="fill:#006e69;fill-opacity:1" />
  <path
     d="M3.5 8.99414C1.56711 8.99414 0 10.5605 0 12.4936V14.9909H11V12.4936C11 10.5605 9.43289 8.99414 7.5 8.99414H3.5Z"
     fill="black"
     id="path1345"
     style="fill:#006e69;fill-opacity:1" />
  <path
     d="M12.5 10H12V15H15V12.5C15 11.1193 13.8807 10 12.5 10Z"
     fill="black"
     id="path1347"
     style="fill:#006e69;fill-opacity:1" />
  <path
     d="m 11.548,4.72 c -1.3807,0 -2.5,1.11929 -2.5,2.5 0,1.38071 1.1193,2.5 2.5,2.5 1.3807,0 2.5,-1.11929 2.5,-2.5 0,-1.38071 -1.1193,-2.5 -2.5,-2.5 z"
     fill="black"
     id="path1349"
     style="fill:#006e69;fill-opacity:1" />
</svg>
