<?xml version="1.0" encoding="UTF-8" standalone="no"?>
<!-- Generator: Adobe Illustrator 16.0.0, SVG Export Plug-In . SVG Version: 6.00 Build 0)  -->

<svg
   version="1.1"
   id="Capa_1"
   x="0px"
   y="0px"
   width="632.399px"
   height="632.399px"
   viewBox="0 0 632.399 632.399"
   style="enable-background:new 0 0 632.399 632.399;"
   xml:space="preserve"
   sodipodi:docname="search-white.svg"
   inkscape:version="1.1.2 (b8e25be8, 2022-02-05)"
   xmlns:inkscape="http://www.inkscape.org/namespaces/inkscape"
   xmlns:sodipodi="http://sodipodi.sourceforge.net/DTD/sodipodi-0.dtd"
   xmlns="http://www.w3.org/2000/svg"
   xmlns:svg="http://www.w3.org/2000/svg"><defs
   id="defs178" /><sodipodi:namedview
   id="namedview176"
   pagecolor="#ffffff"
   bordercolor="#666666"
   borderopacity="1.0"
   inkscape:pageshadow="2"
   inkscape:pageopacity="0.0"
   inkscape:pagecheckerboard="true"
   showgrid="false"
   inkscape:zoom="0.98830013"
   inkscape:cx="211.98014"
   inkscape:cy="279.77331"
   inkscape:window-width="1296"
   inkscape:window-height="847"
   inkscape:window-x="0"
   inkscape:window-y="25"
   inkscape:window-maximized="0"
   inkscape:current-layer="Capa_1" />
<g
   id="g143"
   style="fill:#ffffff">
	<path
   d="M255.108,0C119.863,0,10.204,109.66,10.204,244.904c0,135.245,109.659,244.905,244.904,244.905   c52.006,0,100.238-16.223,139.883-43.854l185.205,185.176c1.671,1.672,4.379,1.672,5.964,0.115l34.892-34.891   c1.613-1.613,1.47-4.379-0.115-5.965L438.151,407.605c38.493-43.246,61.86-100.237,61.86-162.702   C500.012,109.66,390.353,0,255.108,0z M255.108,460.996c-119.34,0-216.092-96.752-216.092-216.092   c0-119.34,96.751-216.091,216.092-216.091s216.091,96.751,216.091,216.091C471.199,364.244,374.448,460.996,255.108,460.996z"
   id="path141"
   style="fill:#ffffff" />
</g>
<g
   id="g145">
</g>
<g
   id="g147">
</g>
<g
   id="g149">
</g>
<g
   id="g151">
</g>
<g
   id="g153">
</g>
<g
   id="g155">
</g>
<g
   id="g157">
</g>
<g
   id="g159">
</g>
<g
   id="g161">
</g>
<g
   id="g163">
</g>
<g
   id="g165">
</g>
<g
   id="g167">
</g>
<g
   id="g169">
</g>
<g
   id="g171">
</g>
<g
   id="g173">
</g>
</svg>
