<?xml version="1.0" encoding="UTF-8" standalone="no"?>
<svg
   fill="none"
   height="15"
   viewBox="0 0 15 15"
   width="15"
   version="1.1"
   id="svg11"
   sodipodi:docname="password-reset.svg"
   inkscape:version="1.1.2 (b8e25be8, 2022-02-05)"
   xmlns:inkscape="http://www.inkscape.org/namespaces/inkscape"
   xmlns:sodipodi="http://sodipodi.sourceforge.net/DTD/sodipodi-0.dtd"
   xmlns="http://www.w3.org/2000/svg"
   xmlns:svg="http://www.w3.org/2000/svg">
  <defs
     id="defs15">
    <rect
       x="-287.22608"
       y="-63.090123"
       width="219.15516"
       height="416.72686"
       id="rect1312" />
  </defs>
  <sodipodi:namedview
     id="namedview13"
     pagecolor="#ffffff"
     bordercolor="#666666"
     borderopacity="1.0"
     inkscape:pageshadow="2"
     inkscape:pageopacity="0.0"
     inkscape:pagecheckerboard="0"
     showgrid="false"
     inkscape:zoom="12.184565"
     inkscape:cx="19.820158"
     inkscape:cy="15.757642"
     inkscape:window-width="1232"
     inkscape:window-height="712"
     inkscape:window-x="39"
     inkscape:window-y="30"
     inkscape:window-maximized="0"
     inkscape:current-layer="layer2" />
  <path
     d="M 10.445976,8.1853213 V 7.6446428 c 0,-0.298606 -0.204759,-0.5406785 -0.4573579,-0.5406785 H 5.4150398 c -0.2525918,0 -0.4573578,0.2420725 -0.4573578,0.5406785 v 3.2440722 c 0,0.298616 0.204766,0.540679 0.4573578,0.540679 h 4.5735783 c 0.2525989,0 0.4573569,-0.242063 0.4573569,-0.540679 v -0.540679 m 0,-2.1627147 H 8.6165441 c -0.5051836,0 -0.9147155,0.4841405 -0.9147155,1.0813575 0,0.597233 0.4095319,1.0813572 0.9147155,1.0813572 h 1.8294319 m 0,-2.1627147 c 0.505197,0 0.914715,0.4841405 0.914715,1.0813575 0,0.597233 -0.409518,1.0813572 -0.914715,1.0813572 M 6.3297553,7.1039643 V 5.4819282 c 0,-0.8958234 0.6143001,-1.6220359 1.3720733,-1.6220359 0.7577732,0 1.3720736,0.7262125 1.3720736,1.6220359 v 1.6220361 m 1.1433948,2.1627145 h 0.457357 m -1.372073,0 h 0.4573578 m -1.3720735,0 h 0.4573579"
     stroke="#000000"
     id="path9"
     style="stroke-width:0.497275" />
  <path
     d="m 189.96677,-119.33909 a 233.52,233.52 0 0 0 -101.4,-69 l 127.35,-26.31 a 5.16,5.16 0 0 0 4,-6.11 l -4.6,-22.33 a 5.18,5.18 0 0 0 -6.12,-4 l -184.28,38.09 a 5.17,5.17 0 0 0 -3.93,6.48 l 51.38,181 a 5.17,5.17 0 0 0 6.38,3.57 l 21.95,-6.26 a 5.18,5.18 0 0 0 3.57,-6.39 l -36.86,-129.69 a 199.84,199.84 0 0 1 145.26,192.21 c 0,110.15 -89.61,199.75 -199.75,199.75 -110.14,0 -199.75,-89.6 -199.75,-199.75 a 199.38,199.38 0 0 1 47.54,-129.35 5.16,5.16 0 0 0 -0.49,-7.2 l -17,-15.19 a 5.18,5.18 0 0 0 -7.39,0.49 232.87,232.87 0 1 0 354.11,0 z"
     id="path115" />
  <path
     d="m 186.35432,-121.16757 a 233.52,233.52 0 0 0 -101.4,-69 l 127.35,-26.31 a 5.16,5.16 0 0 0 4,-6.11 l -4.6,-22.33 a 5.18,5.18 0 0 0 -6.12,-4 l -184.28,38.09 a 5.17,5.17 0 0 0 -3.93,6.48 l 51.38,181 a 5.17,5.17 0 0 0 6.38,3.57 l 21.95,-6.26 a 5.18,5.18 0 0 0 3.57,-6.39 l -36.86,-129.69 a 199.84,199.84 0 0 1 145.26,192.21 c 0,110.15 -89.61,199.75 -199.75,199.75 -110.14,0 -199.75,-89.6 -199.75,-199.75 a 199.38,199.38 0 0 1 47.54,-129.35 5.16,5.16 0 0 0 -0.49,-7.2 l -17,-15.19 a 5.18,5.18 0 0 0 -7.39,0.49 232.87,232.87 0 1 0 354.11,0 z"
     id="path115-6" />
  <path
     d="m 192.97705,-113.88233 a 233.52,233.52 0 0 0 -101.4,-69 l 127.35,-26.31 a 5.16,5.16 0 0 0 4,-6.11 l -4.6,-22.33 a 5.18,5.18 0 0 0 -6.12,-4 l -184.28,38.09 a 5.17,5.17 0 0 0 -3.93,6.48 l 51.38,181 a 5.17,5.17 0 0 0 6.38,3.57 l 21.95,-6.26 a 5.18,5.18 0 0 0 3.57,-6.39 l -36.86,-129.69 a 199.84,199.84 0 0 1 145.26,192.21 c 0,110.15 -89.61,199.75 -199.75,199.75 -110.14,0 -199.75,-89.6 -199.75,-199.75 a 199.38,199.38 0 0 1 47.54,-129.35 5.16,5.16 0 0 0 -0.49,-7.2 l -17,-15.19 a 5.18,5.18 0 0 0 -7.39,0.49 232.87,232.87 0 1 0 354.11,0 z"
     id="path115-8" />
  <path
     d="m 204.69817,-129.40912 a 233.52,233.52 0 0 0 -101.4,-69 l 127.35,-26.31 a 5.16,5.16 0 0 0 4,-6.11 l -4.6,-22.33 a 5.18,5.18 0 0 0 -6.12,-4 l -184.279999,38.09 a 5.17,5.17 0 0 0 -3.93,6.48 l 51.38,180.999998 a 5.17,5.17 0 0 0 6.38,3.57 l 21.949999,-6.26 a 5.18,5.18 0 0 0 3.57,-6.39 L 82.138171,-170.35912 A 199.84,199.84 0 0 1 227.39817,21.850878 c 0,110.150002 -89.61,199.750002 -199.749999,199.750002 -110.14,0 -199.750001,-89.6 -199.750001,-199.750002 a 199.38,199.38 0 0 1 47.54,-129.349998 5.16,5.16 0 0 0 -0.49,-7.2 l -17,-15.19 a 5.18,5.18 0 0 0 -7.39,0.49 232.87,232.87 0 1 0 354.11,0 z"
     id="path217" />
  <path
     d="m 198.98249,-100.72376 a 233.52,233.52 0 0 0 -101.4,-69 l 127.35,-26.31 a 5.16,5.16 0 0 0 4,-6.11 l -4.6,-22.33 a 5.18,5.18 0 0 0 -6.12,-4 l -184.28,38.09 a 5.17,5.17 0 0 0 -3.93,6.48 l 51.38,181 a 5.17,5.17 0 0 0 6.38,3.57 l 21.95,-6.26 a 5.18,5.18 0 0 0 3.57,-6.39 l -36.86,-129.69 a 199.84,199.84 0 0 1 145.26,192.21 c 0,110.15 -89.61,199.75 -199.75,199.75 -110.14,0 -199.75,-89.6 -199.75,-199.75 a 199.38,199.38 0 0 1 47.54,-129.35 5.16,5.16 0 0 0 -0.49,-7.2 l -17,-15.19 a 5.18,5.18 0 0 0 -7.39,0.49 232.87,232.87 0 1 0 354.11,0 z"
     id="path115-81" />
  <path
     d="m 201.74268,-107.1642 a 233.52,233.52 0 0 0 -101.4,-69 l 127.35,-26.31 a 5.16,5.16 0 0 0 4,-6.11 l -4.6,-22.33 a 5.18,5.18 0 0 0 -6.12,-4 l -184.28,38.09 a 5.17,5.17 0 0 0 -3.93,6.48 l 51.38,181 a 5.17,5.17 0 0 0 6.38,3.57 l 21.95,-6.26 a 5.18,5.18 0 0 0 3.57,-6.39 l -36.86,-129.69 a 199.84,199.84 0 0 1 145.26,192.21 c 0,110.15 -89.61,199.75 -199.75,199.75 -110.14,0 -199.75,-89.6 -199.75,-199.75 a 199.38,199.38 0 0 1 47.54,-129.35 5.16,5.16 0 0 0 -0.49,-7.2 l -17,-15.19 a 5.18,5.18 0 0 0 -7.39,0.49 232.87,232.87 0 1 0 354.11,0 z"
     id="path5161" />
  <g
     style="clip-rule:evenodd;fill-rule:evenodd;stroke-linejoin:round;stroke-miterlimit:2"
     id="g5747"
     transform="translate(6.0238789,-3.5993583)">
    <path
       d="m 20.852,6.744 c 3.074,1.756 5.15,5.126 5.15,8.986 0,5.664 -4.474,10.275 -10,10.275 -5.526,0 -10,-4.611 -10,-10.275 0,-4.566 2.906,-8.446 6.93,-9.781 0.524,-0.174 0.808,-0.74 0.635,-1.264 -0.174,-0.524 -0.74,-0.808 -1.264,-0.634 -4.81,1.595 -8.301,6.221 -8.301,11.679 0,6.782 5.384,12.275 12,12.275 6.616,0 12,-5.493 12,-12.275 0,-4.431 -2.3,-8.314 -5.74,-10.472 L 23.473,4.934 C 24.006,4.791 24.323,4.242 24.18,3.709 24.037,3.176 23.489,2.859 22.956,3.002 l -3.864,1.035 c -0.534,0.143 -0.85,0.692 -0.707,1.225 l 1.035,3.864 c 0.143,0.533 0.692,0.85 1.225,0.707 0.533,-0.143 0.85,-0.692 0.707,-1.225 z"
       id="path5738" />
  </g>
  <path
     d="m 21.351928,-4.966476 c 3.074,1.756 5.15,5.126 5.15,8.986 0,5.664 -4.474,10.275 -10,10.275 -5.526,0 -9.9999997,-4.611 -9.9999997,-10.275 0,-4.566 2.906,-8.446 6.9299997,-9.781 0.524,-0.174 0.808,-0.74 0.635,-1.264 -0.174,-0.524 -0.74,-0.808 -1.264,-0.634 -4.8099997,1.595 -8.3009997,6.221 -8.3009997,11.679 0,6.782 5.384,12.275 11.9999997,12.275 6.616,0 12,-5.493 12,-12.275 0,-4.431 -2.3,-8.314 -5.74,-10.472 l 1.211,-0.324 c 0.533,-0.143 0.85,-0.692 0.707,-1.225 -0.143,-0.533 -0.691,-0.85 -1.224,-0.707 l -3.864,1.035 c -0.534,0.143 -0.85,0.692 -0.707,1.225 l 1.035,3.864 c 0.143,0.533 0.692,0.85 1.225,0.707 0.533,-0.143 0.85,-0.692 0.707,-1.225 z"
     id="path5749"
     style="clip-rule:evenodd;fill-rule:evenodd;stroke-linejoin:round;stroke-miterlimit:2" />
  <g
     style="clip-rule:evenodd;fill-rule:evenodd;stroke-linejoin:round;stroke-miterlimit:2"
     id="g6063"
     transform="translate(6.0238789,-3.5993583)">
    <path
       d="m 20.852,6.744 c 3.074,1.756 5.15,5.126 5.15,8.986 0,5.664 -4.474,10.275 -10,10.275 -5.526,0 -10,-4.611 -10,-10.275 0,-4.566 2.906,-8.446 6.93,-9.781 0.524,-0.174 0.808,-0.74 0.635,-1.264 -0.174,-0.524 -0.74,-0.808 -1.264,-0.634 -4.81,1.595 -8.301,6.221 -8.301,11.679 0,6.782 5.384,12.275 12,12.275 6.616,0 12,-5.493 12,-12.275 0,-4.431 -2.3,-8.314 -5.74,-10.472 L 23.473,4.934 C 24.006,4.791 24.323,4.242 24.18,3.709 24.037,3.176 23.489,2.859 22.956,3.002 l -3.864,1.035 c -0.534,0.143 -0.85,0.692 -0.707,1.225 l 1.035,3.864 c 0.143,0.533 0.692,0.85 1.225,0.707 0.533,-0.143 0.85,-0.692 0.707,-1.225 z"
       id="path6054" />
  </g>
  <g
     style="clip-rule:evenodd;fill-rule:evenodd;stroke-linejoin:round;stroke-miterlimit:2"
     id="g6098"
     transform="translate(6.0238789,-3.5993583)">
    <path
       d="m 20.852,6.744 c 3.074,1.756 5.15,5.126 5.15,8.986 0,5.664 -4.474,10.275 -10,10.275 -5.526,0 -10,-4.611 -10,-10.275 0,-4.566 2.906,-8.446 6.93,-9.781 0.524,-0.174 0.808,-0.74 0.635,-1.264 -0.174,-0.524 -0.74,-0.808 -1.264,-0.634 -4.81,1.595 -8.301,6.221 -8.301,11.679 0,6.782 5.384,12.275 12,12.275 6.616,0 12,-5.493 12,-12.275 0,-4.431 -2.3,-8.314 -5.74,-10.472 L 23.473,4.934 C 24.006,4.791 24.323,4.242 24.18,3.709 24.037,3.176 23.489,2.859 22.956,3.002 l -3.864,1.035 c -0.534,0.143 -0.85,0.692 -0.707,1.225 l 1.035,3.864 c 0.143,0.533 0.692,0.85 1.225,0.707 0.533,-0.143 0.85,-0.692 0.707,-1.225 z"
       id="path6089" />
  </g>
  <g
     inkscape:groupmode="layer"
     id="layer1"
     inkscape:label="Layer 1" />
  <g
     inkscape:groupmode="layer"
     id="layer2"
     inkscape:label="Layer 2">
    <g
       id="g6221"
       transform="matrix(0.43143043,0,0,0.42137019,0.77689778,0.96138699)">
      <path
         d="M 1,16 C 1,24.284 7.716,31 16,31 24.284,31 31,24.284 31,16 31,7.716 24.284,1 16,1 10.657,1 5.966,3.794 3.309,8"
         fill="none"
         stroke="#000000"
         stroke-linejoin="round"
         stroke-miterlimit="10"
         stroke-width="2"
         id="path6217" />
      <polyline
         fill="none"
         points="3,0 3,8 11,8     "
         stroke="#000000"
         stroke-linejoin="round"
         stroke-miterlimit="10"
         stroke-width="2"
         id="polyline6219" />
    </g>
  </g>
</svg>
