<?xml version="1.0" encoding="UTF-8" standalone="no"?>
<svg
   fill="none"
   height="13"
   viewBox="0 0 15 13"
   width="15"
   version="1.1"
   id="svg107"
   sodipodi:docname="password-reset-init.svg"
   inkscape:version="1.1.2 (b8e25be8, 2022-02-05)"
   xmlns:inkscape="http://www.inkscape.org/namespaces/inkscape"
   xmlns:sodipodi="http://sodipodi.sourceforge.net/DTD/sodipodi-0.dtd"
   xmlns="http://www.w3.org/2000/svg"
   xmlns:svg="http://www.w3.org/2000/svg">
  <defs
     id="defs111" />
  <sodipodi:namedview
     id="namedview109"
     pagecolor="#ffffff"
     bordercolor="#666666"
     borderopacity="1.0"
     inkscape:pageshadow="2"
     inkscape:pageopacity="0.0"
     inkscape:pagecheckerboard="0"
     showgrid="false"
     inkscape:zoom="24.301959"
     inkscape:cx="7.1393421"
     inkscape:cy="7.3039379"
     inkscape:window-width="1296"
     inkscape:window-height="847"
     inkscape:window-x="113"
     inkscape:window-y="25"
     inkscape:window-maximized="0"
     inkscape:current-layer="svg107"
     height="14px" />
  <path
     d="M 7.7228812,7.6429632 V 6.9385343 c 0,-0.3890421 -0.2640267,-0.704429 -0.5897402,-0.704429 H 1.23574 c -0.32570465,0 -0.58974015,0.3153869 -0.58974015,0.704429 v 4.2265747 c 0,0.389057 0.2640355,0.704429 0.58974015,0.704429 h 5.897401 c 0.3257135,0 0.5897402,-0.315372 0.5897402,-0.704429 v -0.70443 m 0,-2.8177158 H 5.3639208 c -0.6514092,0 -1.1794803,0.6307673 -1.1794803,1.4088583 0,0.778112 0.5280711,1.4088575 1.1794803,1.4088575 h 2.3589604 m 0,-2.8177158 c 0.6514269,0 1.1794802,0.6307673 1.1794802,1.4088583 0,0.778112 -0.5280533,1.4088575 -1.1794802,1.4088575 M 2.4152201,6.2341053 v -2.113287 c 0,-1.1671332 0.7921095,-2.1132869 1.7692204,-2.1132869 0.9771109,0 1.7692203,0.9461537 1.7692203,2.1132869 v 2.113287 m 1.4743503,2.8177162 h 0.5897402 m -1.7692204,0 h 0.58974 m -1.7692203,0 h 0.5897402"
     stroke="#000000"
     id="path105"
     style="stroke-width:0.644538" />
  <text
     xml:space="preserve"
     style="font-style:normal;font-weight:normal;font-size:16px;line-height:1.25;font-family:sans-serif;fill:#000000;fill-opacity:1;stroke:none"
     x="6.7484269"
     y="12.344684"
     id="text1041"><tspan
       sodipodi:role="line"
       id="tspan1039"
       x="6.7484269"
       y="12.344684"
       style="font-size:16px">?</tspan></text>
</svg>
